<svg width="87" height="25" viewBox="0 0 87 25" fill="none" xmlns="http://www.w3.org/2000/svg">
<path d="M9.23 24.36C7.59 24.36 6.08 23.95 4.7 23.13C3.34 22.31 2.25 21.1 1.43 19.5C0.63 17.9 0.23 15.92 0.23 13.56C0.23 11.24 0.63 9.26 1.43 7.62C2.23 5.98 3.36 4.72 4.82 3.84C6.28 2.96 7.99 2.52 9.95 2.52C11.97 2.52 14.22 3.04 16.7 4.08L16.43 9.48H13.88L13.25 6.42C12.09 6.02 11.04 5.82 10.1 5.82C8.38 5.82 7.07 6.46 6.17 7.74C5.29 9 4.85 10.76 4.85 13.02C4.85 15.66 5.36 17.63 6.38 18.93C7.42 20.23 8.73 20.88 10.31 20.88C11.09 20.88 11.92 20.72 12.8 20.4C13.68 20.06 14.55 19.55 15.41 18.87L17 21.36C15.76 22.36 14.47 23.11 13.13 23.61C11.81 24.11 10.51 24.36 9.23 24.36ZM26.1613 7.62C28.5213 7.62 30.3613 8.32 31.6813 9.72C33.0013 11.12 33.6613 13.11 33.6613 15.69C33.6613 18.39 32.9413 20.51 31.5013 22.05C30.0813 23.59 28.1213 24.36 25.6213 24.36C23.2413 24.36 21.4113 23.66 20.1313 22.26C18.8513 20.86 18.2113 18.87 18.2113 16.29C18.2113 13.59 18.9013 11.47 20.2813 9.93C21.6813 8.39 23.6413 7.62 26.1613 7.62ZM25.9513 10.62C24.8113 10.62 23.9613 11.07 23.4013 11.97C22.8413 12.85 22.5613 14.22 22.5613 16.08C22.5613 17.94 22.8313 19.29 23.3713 20.13C23.9113 20.95 24.7313 21.36 25.8313 21.36C28.1513 21.36 29.3113 19.54 29.3113 15.9C29.3113 14.06 29.0313 12.72 28.4713 11.88C27.9113 11.04 27.0713 10.62 25.9513 10.62ZM35.5257 24V21.84L37.5357 21.27V10.92H35.4357V8.67L37.5357 8.13V6.72C37.5357 4.6 38.0957 3.02 39.2157 1.98C40.3557 0.939999 41.8157 0.42 43.5957 0.42C44.0157 0.42 44.4657 0.449999 44.9457 0.509998C45.4257 0.549999 45.9057 0.629999 46.3857 0.749999L45.8157 3.66C45.5357 3.58 45.2557 3.52 44.9757 3.48C44.7157 3.44 44.4557 3.42 44.1957 3.42C43.3957 3.42 42.7857 3.66 42.3657 4.14C41.9457 4.6 41.7357 5.34 41.7357 6.36V8.13H45.5757L45.4857 10.92H41.7357V21.24L44.1357 21.84V24H35.5257ZM54.9943 21.84V24H46.7743V21.84L48.7843 21.27V10.8L46.7743 10.23V8.07L52.9843 7.86V21.27L54.9943 21.84ZM50.7643 5.52C50.0243 5.52 49.4243 5.31 48.9643 4.89C48.5243 4.47 48.3043 3.87 48.3043 3.09C48.3043 2.25 48.5343 1.63 48.9943 1.23C49.4743 0.809999 50.0743 0.599999 50.7943 0.599999C51.4943 0.599999 52.0743 0.809999 52.5343 1.23C52.9943 1.63 53.2243 2.24 53.2243 3.06C53.2243 3.88 52.9843 4.5 52.5043 4.92C52.0443 5.32 51.4643 5.52 50.7643 5.52Z" fill="#743E24"/>
<path d="M63.6451 24.36C62.2651 24.36 61.0151 24.04 59.8951 23.4C58.7951 22.76 57.9251 21.83 57.2851 20.61C56.6451 19.37 56.3251 17.88 56.3251 16.14C56.3251 14.56 56.5551 13.23 57.0151 12.15C57.4751 11.05 58.0951 10.17 58.8751 9.51C59.6551 8.85 60.5251 8.37 61.4851 8.07C62.4451 7.77 63.4351 7.62 64.4551 7.62C65.4151 7.62 66.3851 7.74 67.3651 7.98C68.3451 8.22 69.1451 8.49 69.7651 8.79L69.6451 13.2H66.9451L66.5251 10.89C66.2251 10.79 65.8951 10.72 65.5351 10.68C65.1751 10.64 64.8451 10.62 64.5451 10.62C63.2451 10.62 62.2751 11.1 61.6351 12.06C61.0151 13 60.7051 14.28 60.7051 15.9C60.7051 17.66 61.0551 19 61.7551 19.92C62.4751 20.82 63.4251 21.27 64.6051 21.27C65.8851 21.27 67.3351 20.75 68.9551 19.71L70.3651 21.84C69.2451 22.7 68.1151 23.34 66.9751 23.76C65.8551 24.16 64.7451 24.36 63.6451 24.36ZM79.3058 7.62C81.6658 7.62 83.5058 8.32 84.8258 9.72C86.1458 11.12 86.8058 13.11 86.8058 15.69C86.8058 18.39 86.0858 20.51 84.6458 22.05C83.2258 23.59 81.2658 24.36 78.7658 24.36C76.3858 24.36 74.5558 23.66 73.2758 22.26C71.9958 20.86 71.3558 18.87 71.3558 16.29C71.3558 13.59 72.0458 11.47 73.4258 9.93C74.8258 8.39 76.7858 7.62 79.3058 7.62ZM79.0958 10.62C77.9558 10.62 77.1058 11.07 76.5458 11.97C75.9858 12.85 75.7058 14.22 75.7058 16.08C75.7058 17.94 75.9758 19.29 76.5158 20.13C77.0558 20.95 77.8758 21.36 78.9758 21.36C81.2958 21.36 82.4558 19.54 82.4558 15.9C82.4558 14.06 82.1758 12.72 81.6158 11.88C81.0558 11.04 80.2158 10.62 79.0958 10.62Z" fill="#D17E08"/>
</svg>
