<svg width="113" height="16" viewBox="0 0 113 16" fill="none" xmlns="http://www.w3.org/2000/svg">
<path d="M16.2133 5.63406L11.1905 4.90408L8.94521 0.352135C8.88388 0.227506 8.78299 0.126615 8.65836 0.0652895C8.3458 -0.0890138 7.96597 0.0395723 7.80969 0.352135L5.56438 4.90408L0.541613 5.63406C0.403136 5.65384 0.276528 5.71912 0.179594 5.81803C0.062406 5.93848 -0.00216996 6.10053 5.56796e-05 6.26856C0.00228131 6.4366 0.0711264 6.59688 0.191463 6.71418L3.8255 10.2572L2.96694 15.2602C2.94681 15.3766 2.95969 15.4963 3.00412 15.6057C3.04855 15.7151 3.12275 15.8099 3.21832 15.8793C3.31388 15.9488 3.42698 15.99 3.54479 15.9984C3.6626 16.0068 3.78041 15.982 3.88485 15.9269L8.37745 13.5648L12.87 15.9269C12.9927 15.9922 13.1351 16.0139 13.2716 15.9902C13.6158 15.9308 13.8473 15.6044 13.788 15.2602L12.9294 10.2572L16.5634 6.71418C16.6623 6.61724 16.7276 6.49064 16.7474 6.35216C16.8008 6.00597 16.5595 5.68549 16.2133 5.63406Z" fill="#FFB938"/>
<path d="M40.2133 5.63406L35.1905 4.90408L32.9452 0.352135C32.8839 0.227506 32.783 0.126615 32.6584 0.0652895C32.3458 -0.0890138 31.966 0.0395723 31.8097 0.352135L29.5644 4.90408L24.5416 5.63406C24.4031 5.65384 24.2765 5.71912 24.1796 5.81803C24.0624 5.93848 23.9978 6.10053 24.0001 6.26856C24.0023 6.4366 24.0711 6.59688 24.1915 6.71418L27.8255 10.2572L26.9669 15.2602C26.9468 15.3766 26.9597 15.4963 27.0041 15.6057C27.0485 15.7151 27.1228 15.8099 27.2183 15.8793C27.3139 15.9488 27.427 15.99 27.5448 15.9984C27.6626 16.0068 27.7804 15.982 27.8849 15.9269L32.3774 13.5648L36.87 15.9269C36.9927 15.9922 37.1351 16.0139 37.2716 15.9902C37.6158 15.9308 37.8473 15.6044 37.788 15.2602L36.9294 10.2572L40.5634 6.71418C40.6623 6.61724 40.7276 6.49064 40.7474 6.35216C40.8008 6.00597 40.5595 5.68549 40.2133 5.63406Z" fill="#FFB938"/>
<path d="M64.2133 5.63406L59.1905 4.90408L56.9452 0.352135C56.8839 0.227506 56.783 0.126615 56.6584 0.0652895C56.3458 -0.0890138 55.966 0.0395723 55.8097 0.352135L53.5644 4.90408L48.5416 5.63406C48.4031 5.65384 48.2765 5.71912 48.1796 5.81803C48.0624 5.93848 47.9978 6.10053 48.0001 6.26856C48.0023 6.4366 48.0711 6.59688 48.1915 6.71418L51.8255 10.2572L50.9669 15.2602C50.9468 15.3766 50.9597 15.4963 51.0041 15.6057C51.0485 15.7151 51.1228 15.8099 51.2183 15.8793C51.3139 15.9488 51.427 15.99 51.5448 15.9984C51.6626 16.0068 51.7804 15.982 51.8849 15.9269L56.3774 13.5648L60.87 15.9269C60.9927 15.9922 61.1351 16.0139 61.2716 15.9902C61.6158 15.9308 61.8473 15.6044 61.788 15.2602L60.9294 10.2572L64.5634 6.71418C64.6623 6.61724 64.7276 6.49064 64.7474 6.35216C64.8008 6.00597 64.5595 5.68549 64.2133 5.63406Z" fill="#FFB938"/>
<path d="M88.2133 5.63406L83.1905 4.90408L80.9452 0.352135C80.8839 0.227506 80.783 0.126615 80.6584 0.0652895C80.3458 -0.0890138 79.966 0.0395723 79.8097 0.352135L77.5644 4.90408L72.5416 5.63406C72.4031 5.65384 72.2765 5.71912 72.1796 5.81803C72.0624 5.93848 71.9978 6.10053 72.0001 6.26856C72.0023 6.4366 72.0711 6.59688 72.1915 6.71418L75.8255 10.2572L74.9669 15.2602C74.9468 15.3766 74.9597 15.4963 75.0041 15.6057C75.0485 15.7151 75.1228 15.8099 75.2183 15.8793C75.3139 15.9488 75.427 15.99 75.5448 15.9984C75.6626 16.0068 75.7804 15.982 75.8849 15.9269L80.3774 13.5648L84.87 15.9269C84.9927 15.9922 85.1351 16.0139 85.2716 15.9902C85.6158 15.9308 85.8473 15.6044 85.788 15.2602L84.9294 10.2572L88.5634 6.71418C88.6623 6.61724 88.7276 6.49064 88.7474 6.35216C88.8008 6.00597 88.5595 5.68549 88.2133 5.63406Z" fill="#FFB938"/>
<path d="M112.213 5.63406L107.191 4.90408L104.945 0.352135C104.884 0.227506 104.783 0.126615 104.658 0.0652895C104.346 -0.0890138 103.966 0.0395723 103.81 0.352135L101.564 4.90408L96.5416 5.63406C96.4031 5.65384 96.2765 5.71912 96.1796 5.81803C96.0624 5.93848 95.9978 6.10053 96.0001 6.26856C96.0023 6.4366 96.0711 6.59688 96.1915 6.71418L99.8255 10.2572L98.9669 15.2602C98.9468 15.3766 98.9597 15.4963 99.0041 15.6057C99.0485 15.7151 99.1228 15.8099 99.2183 15.8793C99.3139 15.9488 99.427 15.99 99.5448 15.9984C99.6626 16.0068 99.7804 15.982 99.8849 15.9269L104.377 13.5648L108.87 15.9269C108.993 15.9922 109.135 16.0139 109.272 15.9902C109.616 15.9308 109.847 15.6044 109.788 15.2602L108.929 10.2572L112.563 6.71418C112.662 6.61724 112.728 6.49064 112.747 6.35216C112.801 6.00597 112.559 5.68549 112.213 5.63406Z" fill="#FFB938"/>
</svg>
