<svg width="87" height="13" viewBox="0 0 87 13" fill="none" xmlns="http://www.w3.org/2000/svg">
<path d="M12.5798 4.81539L8.68268 4.26791L6.94055 0.853945C6.89297 0.760473 6.81469 0.684805 6.71799 0.638811C6.47547 0.523083 6.18077 0.619523 6.05951 0.853945L4.31738 4.26791L0.420236 4.81539C0.312792 4.83022 0.214557 4.87918 0.139346 4.95337C0.0484205 5.0437 -0.00168366 5.16524 4.32016e-05 5.29127C0.00177006 5.41729 0.0551867 5.5375 0.148556 5.62548L2.96819 8.28276L2.30204 12.035C2.28642 12.1223 2.29641 12.2121 2.33088 12.2941C2.36536 12.3762 2.42293 12.4473 2.49708 12.4994C2.57123 12.5514 2.65898 12.5823 2.75039 12.5886C2.8418 12.5949 2.9332 12.5764 3.01424 12.535L6.50003 10.7635L9.98582 12.535C10.081 12.584 10.1915 12.6003 10.2974 12.5825C10.5645 12.538 10.7441 12.2932 10.698 12.035L10.0319 8.28276L12.8515 5.62548C12.9283 5.55278 12.9789 5.45782 12.9943 5.35396C13.0357 5.09432 12.8484 4.85396 12.5798 4.81539Z" fill="#EEAA2B"/>
<path d="M30.5798 4.81539L26.6827 4.26791L24.9406 0.853945C24.893 0.760473 24.8147 0.684805 24.718 0.638811C24.4755 0.523083 24.1808 0.619523 24.0595 0.853945L22.3174 4.26791L18.4202 4.81539C18.3128 4.83022 18.2146 4.87918 18.1393 4.95337C18.0484 5.0437 17.9983 5.16524 18 5.29127C18.0018 5.41729 18.0552 5.5375 18.1486 5.62548L20.9682 8.28276L20.302 12.035C20.2864 12.1223 20.2964 12.2121 20.3309 12.2941C20.3654 12.3762 20.4229 12.4473 20.4971 12.4994C20.5712 12.5514 20.659 12.5823 20.7504 12.5886C20.8418 12.5949 20.9332 12.5764 21.0142 12.535L24.5 10.7635L27.9858 12.535C28.081 12.584 28.1915 12.6003 28.2974 12.5825C28.5645 12.538 28.7441 12.2932 28.698 12.035L28.0319 8.28276L30.8515 5.62548C30.9283 5.55278 30.9789 5.45782 30.9943 5.35396C31.0357 5.09432 30.8484 4.85396 30.5798 4.81539Z" fill="#EEAA2B"/>
<path d="M49.5798 4.81539L45.6827 4.26791L43.9406 0.853945C43.893 0.760473 43.8147 0.684805 43.718 0.638811C43.4755 0.523083 43.1808 0.619523 43.0595 0.853945L41.3174 4.26791L37.4202 4.81539C37.3128 4.83022 37.2146 4.87918 37.1393 4.95337C37.0484 5.0437 36.9983 5.16524 37 5.29127C37.0018 5.41729 37.0552 5.5375 37.1486 5.62548L39.9682 8.28276L39.302 12.035C39.2864 12.1223 39.2964 12.2121 39.3309 12.2941C39.3654 12.3762 39.4229 12.4473 39.4971 12.4994C39.5712 12.5514 39.659 12.5823 39.7504 12.5886C39.8418 12.5949 39.9332 12.5764 40.0142 12.535L43.5 10.7635L46.9858 12.535C47.081 12.584 47.1915 12.6003 47.2974 12.5825C47.5645 12.538 47.7441 12.2932 47.698 12.035L47.0319 8.28276L49.8515 5.62548C49.9283 5.55278 49.9789 5.45782 49.9943 5.35396C50.0357 5.09432 49.8484 4.85396 49.5798 4.81539Z" fill="#EEAA2B"/>
<path d="M67.5798 4.81539L63.6827 4.26791L61.9406 0.853945C61.893 0.760473 61.8147 0.684805 61.718 0.638811C61.4755 0.523083 61.1808 0.619523 61.0595 0.853945L59.3174 4.26791L55.4202 4.81539C55.3128 4.83022 55.2146 4.87918 55.1393 4.95337C55.0484 5.0437 54.9983 5.16524 55 5.29127C55.0018 5.41729 55.0552 5.5375 55.1486 5.62548L57.9682 8.28276L57.302 12.035C57.2864 12.1223 57.2964 12.2121 57.3309 12.2941C57.3654 12.3762 57.4229 12.4473 57.4971 12.4994C57.5712 12.5514 57.659 12.5823 57.7504 12.5886C57.8418 12.5949 57.9332 12.5764 58.0142 12.535L61.5 10.7635L64.9858 12.535C65.081 12.584 65.1915 12.6003 65.2974 12.5825C65.5645 12.538 65.7441 12.2932 65.698 12.035L65.0319 8.28276L67.8515 5.62548C67.9283 5.55278 67.9789 5.45782 67.9943 5.35396C68.0357 5.09432 67.8484 4.85396 67.5798 4.81539Z" fill="#EEAA2B"/>
<path d="M86.5798 4.81539L82.6827 4.26791L80.9406 0.853945C80.893 0.760473 80.8147 0.684805 80.718 0.638811C80.4755 0.523083 80.1808 0.619523 80.0595 0.853945L78.3174 4.26791L74.4202 4.81539C74.3128 4.83022 74.2146 4.87918 74.1393 4.95337C74.0484 5.0437 73.9983 5.16524 74 5.29127C74.0018 5.41729 74.0552 5.5375 74.1486 5.62548L76.9682 8.28276L76.302 12.035C76.2864 12.1223 76.2964 12.2121 76.3309 12.2941C76.3654 12.3762 76.4229 12.4473 76.4971 12.4994C76.5712 12.5514 76.659 12.5823 76.7504 12.5886C76.8418 12.5949 76.9332 12.5764 77.0142 12.535L80.5 10.7635L83.9858 12.535C84.081 12.584 84.1915 12.6003 84.2974 12.5825C84.5645 12.538 84.7441 12.2932 84.698 12.035L84.0319 8.28276L86.8515 5.62548C86.9283 5.55278 86.9789 5.45782 86.9943 5.35396C87.0357 5.09432 86.8484 4.85396 86.5798 4.81539Z" fill="#EEAA2B"/>
</svg>
